<!DOCTYPE svg PUBLIC "-//W3C//DTD SVG 1.1//EN" "http://www.w3.org/Graphics/SVG/1.1/DTD/svg11.dtd">
<!-- Uploaded to: SVG Repo, www.svgrepo.com, Transformed by: SVG Repo Mixer Tools -->
<svg width="233px" height="233px" viewBox="-20.48 -20.48 168.96 168.96" xmlns="http://www.w3.org/2000/svg" xmlns:xlink="http://www.w3.org/1999/xlink" aria-hidden="true" role="img" class="iconify iconify--noto" preserveAspectRatio="xMidYMid meet" fill="#000000">
<g id="SVGRepo_bgCarrier" stroke-width="0" transform="translate(0,0), scale(1)">
<path transform="translate(-20.48, -20.48), scale(5.28)" d="M16,26.27635129403911C17.707091235083343,25.90835233715056,18.971893483458935,24.577530112245945,20.621664634268534,24.004957962097336C22.763622467148878,23.261566733987845,26.072096757907378,24.430542662305434,27.116637588838852,22.418193704399627C28.18389751540295,20.362075515969728,25.326273932235843,18.250489317153196,24.776761794952968,16C24.38668851496705,14.402481601487686,24.85614372104717,12.738640763586464,24.36958282780239,11.167819101363422C23.79598312441525,9.315999828514595,23.39801959164268,7.063395137760983,21.712172593627322,6.106226846234993C20.025210857038054,5.148425642933767,17.93941398280123,6.45939441141816,16,6.415846172916263C14.003200982255354,6.371009391993657,11.91948297331767,4.9437022112057605,10.137776793912057,5.846331561746357C8.36433873455841,6.744772203778803,7.738065590682533,8.993597658392028,7.158201869623184,10.89518546930661C6.653148669974133,12.551441885144268,7.607267253278374,14.363470157976062,7.041551666040171,15.999999999999998C6.069637702622444,18.811600459478125,1.9097835056387393,20.796464080529425,2.748945077289875,23.650500126673194C3.4925861116500094,26.17966541397235,7.478436229513833,25.76836612040896,10.064377077512045,26.280800476319587C12.038818486990554,26.672059082537363,14.032365219314796,26.700515821364117,16,26.27635129403911" fill="#7ed0ec" strokewidth="0"/>
</g>
<g id="SVGRepo_tracerCarrier" stroke-linecap="round" stroke-linejoin="round" stroke="#CCCCCC" stroke-width="1.024"/>
<g id="SVGRepo_iconCarrier">
<path d="M94.9 71.35c-8.08-7.63-21.82-13.99-30.91-18.2c-1.54-.71-2.93-1.35-4.11-1.92c-3.43-1.65-8.12-6.22-6.1-11.47c1.36-3.55 4.81-5.34 10.27-5.34c1.75 0 3.67.2 5.72.58c7.12 1.33 12.52 3.99 15.58 5.5c.38.19.82.21 1.22.07c.39-.15.72-.45.89-.84l7.01-15.81c.31-.69.07-1.51-.57-1.93c-4.94-3.28-17.27-8.15-30.97-8.15c-1.98 0-3.95.1-5.87.3c-10.92 1.12-21.86 4.03-27.92 17.64c-3.78 8.47-3.77 18.01.01 24.89c4.04 7.51 10.66 10.87 19.04 15.11l1.08.55c6.05 3.02 13.3 6.38 18.07 8.59c7.05 3.4 9.66 9.44 8.04 13.08c-2.61 5.87-8.38 7.16-18.36 4.33c-8.81-2.39-16.94-9.14-19.21-11.15c-.34-.3-.79-.44-1.25-.38c-.45.06-.85.32-1.1.69L24.6 104.14c-.41.63-.32 1.46.22 1.98c5.63 5.43 10.22 8.59 18.17 12.5c5.35 2.63 13.18 4.21 20.95 4.21c8.12 0 27.95-1.88 36.65-19.26c5.55-11.12 3.48-22.84-5.69-32.22z" fill="#0a4d61"/>
</g>
</svg>